<svg width="978" height="366" viewBox="0 0 978 366" fill="none" xmlns="http://www.w3.org/2000/svg">
<g clip-path="url(#clip0_17_71)">
<path d="M28.0639 323.071C31.4994 324.277 35.1881 324.579 38.7746 323.948C42.361 323.317 45.7244 321.775 48.5405 319.47C55.7125 313.46 57.9615 303.561 59.7906 294.394L65.2023 267.276L53.8725 275.065C45.7243 280.666 37.393 286.447 31.7518 294.56C26.1106 302.672 23.6494 313.748 28.1807 322.526" fill="#E6E6E6"/>
<path d="M29.8133 357.789C28.3873 347.417 26.9201 336.911 27.9228 326.427C28.8113 317.117 31.6566 308.025 37.4491 300.566C40.5237 296.616 44.265 293.231 48.5048 290.564C49.61 289.868 50.6276 291.616 49.527 292.31C42.1909 296.939 36.5167 303.773 33.3223 311.829C29.7944 320.787 29.2279 330.553 29.8356 340.069C30.2029 345.824 30.9834 351.541 31.7673 357.251C31.8292 357.509 31.7906 357.781 31.6592 358.012C31.5279 358.243 31.3136 358.415 31.0597 358.494C30.8007 358.564 30.5247 358.529 30.2915 358.397C30.0583 358.264 29.8867 358.046 29.814 357.788L29.8133 357.789Z" fill="#F2F2F2"/>
<path d="M40.0776 341.146C41.5508 343.382 43.5762 345.202 45.9584 346.43C48.3406 347.658 50.9995 348.253 53.6788 348.157C60.5658 347.83 66.3049 343.034 71.4709 338.478L86.7539 325.006L76.6395 324.523C69.3656 324.175 61.904 323.849 54.9759 326.091C48.0477 328.333 41.6583 333.72 40.3916 340.88" fill="#E6E6E6"/>
<path d="M25.7824 363.752C32.6478 351.624 40.6104 338.146 54.8394 333.837C58.7955 332.644 62.9436 332.216 67.0605 332.578C68.3582 332.69 68.0341 334.686 66.7391 334.575C59.838 334.003 52.9503 335.822 47.2354 339.726C41.863 343.618 37.3083 348.525 33.83 354.169C31.6099 357.544 29.6215 361.062 27.6331 364.575C26.9977 365.698 25.1396 364.887 25.7824 363.752Z" fill="#F2F2F2"/>
<path d="M656.052 307.218C660.783 308.879 665.863 309.295 670.801 308.426C675.74 307.557 680.372 305.434 684.25 302.26C694.126 293.983 697.223 280.352 699.742 267.728L707.194 230.386L691.592 241.111C680.372 248.824 668.899 256.785 661.131 267.956C653.362 279.128 649.973 294.379 656.213 306.468" fill="#E6E6E6"/>
<path d="M658.461 355.028C656.497 340.744 654.477 326.276 655.858 311.84C657.081 299.019 660.999 286.498 668.976 276.228C673.21 270.788 678.362 266.127 684.2 262.454C685.722 261.495 687.124 263.903 685.608 264.859C675.506 271.232 667.692 280.644 663.293 291.738C658.435 304.073 657.655 317.521 658.492 330.625C658.998 338.55 660.073 346.423 661.152 354.286C661.237 354.642 661.184 355.016 661.003 355.334C660.822 355.652 660.527 355.89 660.178 355.999C659.821 356.094 659.441 356.046 659.12 355.864C658.798 355.682 658.562 355.381 658.462 355.026L658.461 355.028Z" fill="#F2F2F2"/>
<path d="M672.596 332.109C674.624 335.188 677.413 337.694 680.694 339.385C683.974 341.076 687.636 341.895 691.325 341.763C700.809 341.314 708.712 334.708 715.826 328.435L736.872 309.883L722.944 309.218C712.927 308.739 702.652 308.29 693.111 311.377C683.571 314.464 674.772 321.883 673.028 331.742" fill="#E6E6E6"/>
<path d="M652.91 363.238C662.364 346.538 673.329 327.977 692.924 322.044C698.371 320.401 704.084 319.812 709.753 320.31C711.54 320.464 711.093 323.213 709.31 323.06C699.807 322.272 690.322 324.778 682.452 330.154C674.879 335.3 668.983 342.455 663.992 350.042C660.935 354.69 658.197 359.534 655.459 364.373C654.584 365.919 652.025 364.802 652.91 363.238Z" fill="#F2F2F2"/>
<path d="M567.444 55.931C566.447 55.4975 565.644 54.7131 565.189 53.7272C564.734 52.7413 564.658 51.6226 564.975 50.5842C565.026 50.425 565.058 50.2603 565.071 50.0936C565.1 49.6178 564.975 49.1454 564.714 48.7462C564.453 48.3471 564.07 48.0425 563.622 47.8775C563.174 47.7125 562.685 47.696 562.227 47.8303C561.769 47.9647 561.366 48.2427 561.079 48.6233C560.98 48.7584 560.898 48.9046 560.833 49.0589C560.399 50.0543 559.613 50.8555 558.626 51.31C557.638 51.7646 556.518 51.8407 555.478 51.524C555.318 51.4727 555.153 51.4404 554.986 51.4278C554.51 51.3988 554.036 51.5239 553.637 51.7844C553.237 52.045 552.932 52.4271 552.767 52.8743C552.601 53.3215 552.585 53.8099 552.719 54.2672C552.854 54.7246 553.132 55.1264 553.514 55.4134C553.649 55.5121 553.795 55.5945 553.95 55.6589C554.947 56.0924 555.749 56.8767 556.205 57.8627C556.66 58.8486 556.736 59.9672 556.419 61.0056C556.368 61.1648 556.335 61.3295 556.323 61.4963C556.294 61.972 556.419 62.4445 556.68 62.8436C556.941 63.2427 557.324 63.5474 557.771 63.7123C558.219 63.8773 558.709 63.8938 559.167 63.7595C559.625 63.6252 560.027 63.3471 560.315 62.9665C560.414 62.8314 560.496 62.6852 560.561 62.5309C560.995 61.5355 561.78 60.7344 562.768 60.2798C563.756 59.8253 564.876 59.7491 565.916 60.0658C566.076 60.1171 566.241 60.1494 566.408 60.162C566.884 60.191 567.357 60.066 567.757 59.8054C568.157 59.5449 568.462 59.1627 568.627 58.7155C568.792 58.2683 568.809 57.7799 568.675 57.3226C568.54 56.8653 568.261 56.4633 567.88 56.1764C567.745 56.0778 567.599 55.9954 567.444 55.931Z" fill="#CBCBCB"/>
<path d="M651.858 252.174C650.861 251.741 650.059 250.957 649.603 249.971C649.148 248.985 649.072 247.866 649.389 246.828C649.44 246.669 649.473 246.504 649.485 246.337C649.515 245.861 649.389 245.389 649.128 244.99C648.867 244.591 648.485 244.286 648.037 244.121C647.589 243.956 647.099 243.939 646.641 244.074C646.183 244.208 645.781 244.486 645.493 244.867C645.394 245.002 645.312 245.148 645.247 245.302C644.813 246.298 644.028 247.099 643.04 247.553C642.053 248.008 640.932 248.084 639.892 247.767C639.732 247.716 639.568 247.684 639.4 247.671C638.924 247.642 638.451 247.767 638.051 248.028C637.651 248.288 637.346 248.671 637.181 249.118C637.016 249.565 636.999 250.053 637.134 250.511C637.268 250.968 637.547 251.37 637.928 251.657C638.063 251.756 638.21 251.838 638.364 251.902C639.361 252.336 640.164 253.12 640.619 254.106C641.074 255.092 641.151 256.211 640.833 257.249C640.782 257.408 640.75 257.573 640.737 257.74C640.708 258.216 640.833 258.688 641.094 259.087C641.355 259.486 641.738 259.791 642.186 259.956C642.634 260.121 643.123 260.137 643.581 260.003C644.039 259.869 644.442 259.591 644.729 259.21C644.828 259.075 644.91 258.929 644.975 258.774C645.409 257.779 646.195 256.978 647.182 256.523C648.17 256.069 649.29 255.993 650.33 256.309C650.49 256.361 650.655 256.393 650.822 256.405C651.298 256.434 651.772 256.309 652.171 256.049C652.571 255.788 652.876 255.406 653.042 254.959C653.207 254.512 653.223 254.023 653.089 253.566C652.954 253.109 652.676 252.707 652.295 252.42C652.159 252.321 652.013 252.239 651.858 252.174Z" fill="#F1F1F1"/>
<path d="M209.286 137.799C208.289 137.366 207.487 136.582 207.031 135.596C206.576 134.61 206.5 133.491 206.817 132.453C206.868 132.293 206.901 132.129 206.913 131.962C206.942 131.486 206.817 131.014 206.556 130.615C206.295 130.215 205.912 129.911 205.465 129.746C205.017 129.581 204.527 129.564 204.069 129.699C203.611 129.833 203.209 130.111 202.921 130.492C202.822 130.627 202.74 130.773 202.675 130.927C202.241 131.923 201.456 132.724 200.468 133.178C199.48 133.633 198.36 133.709 197.32 133.392C197.16 133.341 196.995 133.309 196.828 133.296C196.352 133.267 195.879 133.392 195.479 133.653C195.079 133.913 194.774 134.296 194.609 134.743C194.444 135.19 194.427 135.678 194.561 136.136C194.696 136.593 194.975 136.995 195.356 137.282C195.491 137.38 195.637 137.463 195.792 137.527C196.789 137.961 197.592 138.745 198.047 139.731C198.502 140.717 198.578 141.836 198.261 142.874C198.21 143.033 198.177 143.198 198.165 143.365C198.136 143.84 198.261 144.313 198.522 144.712C198.783 145.111 199.166 145.416 199.614 145.581C200.062 145.746 200.551 145.762 201.009 145.628C201.467 145.494 201.87 145.215 202.157 144.835C202.256 144.7 202.338 144.554 202.403 144.399C202.837 143.404 203.623 142.603 204.61 142.148C205.598 141.694 206.718 141.617 207.758 141.934C207.918 141.985 208.083 142.018 208.25 142.03C208.726 142.059 209.2 141.934 209.599 141.674C209.999 141.413 210.304 141.031 210.47 140.584C210.635 140.137 210.651 139.648 210.517 139.191C210.382 138.734 210.104 138.332 209.722 138.045C209.587 137.946 209.441 137.864 209.286 137.799Z" fill="#F1F1F1"/>
<path d="M393.918 67.4211C397.914 67.4211 401.153 64.1869 401.153 60.1974C401.153 56.2078 397.914 52.9737 393.918 52.9737C389.922 52.9737 386.682 56.2078 386.682 60.1974C386.682 64.1869 389.922 67.4211 393.918 67.4211Z" fill="#F1F1F1"/>
<path d="M779.812 48.1579C783.808 48.1579 787.047 44.9237 787.047 40.9342C787.047 36.9447 783.808 33.7105 779.812 33.7105C775.816 33.7105 772.576 36.9447 772.576 40.9342C772.576 44.9237 775.816 48.1579 779.812 48.1579Z" fill="#0099FC"/>
<path d="M217.854 14.4474C221.85 14.4474 225.089 11.2132 225.089 7.22368C225.089 3.23415 221.85 0 217.854 0C213.858 0 210.618 3.23415 210.618 7.22368C210.618 11.2132 213.858 14.4474 217.854 14.4474Z" fill="#CBCBCB"/>
<path d="M190.029 342.753C218.712 342.753 241.964 319.538 241.964 290.902C241.964 262.265 218.712 239.051 190.029 239.051C161.345 239.051 138.093 262.265 138.093 290.902C138.093 319.538 161.345 342.753 190.029 342.753Z" fill="#2F2E41"/>
<path d="M182.14 331.595H166.362V359.818H182.14V331.595Z" fill="#2F2E41"/>
<path d="M213.695 331.595H197.918V359.818H213.695V331.595Z" fill="#2F2E41"/>
<path d="M179.51 365.068C186.772 365.068 192.658 362.864 192.658 360.146C192.658 357.427 186.772 355.223 179.51 355.223C172.248 355.223 166.362 357.427 166.362 360.146C166.362 362.864 172.248 365.068 179.51 365.068Z" fill="#2F2E41"/>
<path d="M211.066 364.412C218.327 364.412 224.214 362.208 224.214 359.489C224.214 356.771 218.327 354.567 211.066 354.567C203.804 354.567 197.918 356.771 197.918 359.489C197.918 362.208 203.804 364.412 211.066 364.412Z" fill="#2F2E41"/>
<path d="M245.995 268.244C257.242 257.006 263.495 245.038 259.962 241.513C256.428 237.988 244.446 244.24 233.198 255.478C221.95 266.716 215.697 278.684 219.231 282.209C222.764 285.734 234.747 279.482 245.995 268.244Z" fill="#2F2E41"/>
<path d="M148.167 285.821C151.7 282.296 145.447 270.328 134.199 259.09C122.952 247.852 110.969 241.6 107.436 245.125C103.902 248.65 110.155 260.618 121.403 271.856C132.65 283.094 144.633 289.346 148.167 285.821Z" fill="#2F2E41"/>
<path d="M187.843 301.275C197.647 301.275 205.594 293.341 205.594 283.554C205.594 273.767 197.647 265.833 187.843 265.833C178.04 265.833 170.093 273.767 170.093 283.554C170.093 293.341 178.04 301.275 187.843 301.275Z" fill="white"/>
<path d="M187.843 289.461C191.111 289.461 193.76 286.816 193.76 283.554C193.76 280.292 191.111 277.647 187.843 277.647C184.576 277.647 181.927 280.292 181.927 283.554C181.927 286.816 184.576 289.461 187.843 289.461Z" fill="#3F3D56"/>
<path d="M201.934 316.328C202.482 319.336 201.812 322.437 200.07 324.95C198.327 327.464 195.657 329.183 192.645 329.731C189.633 330.278 186.526 329.609 184.008 327.869C181.491 326.13 179.769 323.464 179.22 320.457L179.216 320.434C178.08 314.171 182.931 311.955 189.204 310.821C195.478 309.687 200.798 310.065 201.934 316.328Z" fill="white"/>
<path d="M240.955 345.32C239.786 345.322 238.665 345.786 237.838 346.611C237.012 347.436 236.547 348.555 236.545 349.722V358.917C236.547 360.084 237.012 361.203 237.838 362.029C238.665 362.854 239.786 363.318 240.955 363.319H311.899C313.068 363.318 314.188 362.854 315.015 362.029C315.842 361.203 316.307 360.084 316.308 358.917V349.722C316.307 348.555 315.842 347.436 315.015 346.611C314.188 345.786 313.068 345.322 311.899 345.32H240.955Z" fill="#E5E5E5"/>
<path d="M281.753 339.197C281.314 338.944 280.792 338.875 280.302 339.006C279.812 339.137 279.395 339.457 279.141 339.895L276.505 344.455L273.921 339.357C273.692 338.905 273.293 338.563 272.811 338.405C272.329 338.247 271.805 338.287 271.352 338.515C270.9 338.744 270.557 339.143 270.399 339.624C270.241 340.105 270.28 340.629 270.509 341.08L272.52 345.048H271.783V363.592H281.617V345.048H280.578L282.453 341.804C282.707 341.366 282.775 340.845 282.644 340.356C282.513 339.867 282.192 339.45 281.753 339.197Z" fill="#0099FC"/>
<path d="M188.691 256.892C179.463 256.883 170.29 255.484 161.48 252.742C160.868 252.545 160.334 252.159 159.954 251.641C159.575 251.123 159.369 250.498 159.367 249.856V228.75C159.368 227.952 159.686 227.187 160.251 226.623C160.816 226.058 161.582 225.741 162.381 225.74H215.442C216.241 225.741 217.007 226.058 217.573 226.623C218.138 227.187 218.456 227.952 218.457 228.75V249.843C218.457 250.491 218.249 251.121 217.862 251.641C217.476 252.162 216.932 252.544 216.312 252.732C207.359 255.463 198.052 256.865 188.691 256.892Z" fill="#0099FC"/>
<path opacity="0.2" d="M217.854 228.75V232.278L189.141 242.331C188.604 242.515 188.02 242.507 187.489 242.306L159.97 231.989V228.75C159.972 228.112 160.226 227.501 160.678 227.049C161.13 226.598 161.742 226.344 162.382 226.342H215.442C216.081 226.344 216.693 226.598 217.145 227.049C217.597 227.501 217.852 228.112 217.854 228.75Z" fill="black"/>
<path d="M188.337 238.251C187.975 238.251 187.617 238.187 187.278 238.06L146.155 222.644C145.573 222.426 145.073 222.034 144.723 221.521C144.374 221.009 144.191 220.401 144.2 219.781C144.209 219.161 144.41 218.559 144.775 218.058C145.14 217.556 145.651 217.179 146.238 216.978L184.931 203.763C185.556 203.551 186.233 203.549 186.86 203.755L230.044 218.126C230.64 218.325 231.16 218.704 231.53 219.212C231.899 219.72 232.1 220.331 232.105 220.958C232.11 221.586 231.918 222.2 231.557 222.713C231.195 223.227 230.681 223.614 230.088 223.822L189.334 238.082C189.014 238.194 188.677 238.251 188.337 238.251Z" fill="#0099FC"/>
<path d="M150.926 237.178H149.72V219.72H186.5V220.924H150.926V237.178Z" fill="#3F3D56"/>
<path d="M150.322 240.789C151.654 240.789 152.734 239.711 152.734 238.382C152.734 237.052 151.654 235.974 150.322 235.974C148.99 235.974 147.91 237.052 147.91 238.382C147.91 239.711 148.99 240.789 150.322 240.789Z" fill="#3F3D56"/>
<path d="M490.302 342.753C518.986 342.753 542.238 319.538 542.238 290.902C542.238 262.265 518.986 239.051 490.302 239.051C461.619 239.051 438.367 262.265 438.367 290.902C438.367 319.538 461.619 342.753 490.302 342.753Z" fill="#2F2E41"/>
<path d="M482.413 331.595H466.635V359.818H482.413V331.595Z" fill="#2F2E41"/>
<path d="M513.969 331.595H498.191V359.818H513.969V331.595Z" fill="#2F2E41"/>
<path d="M479.784 365.068C487.045 365.068 492.932 362.864 492.932 360.146C492.932 357.427 487.045 355.223 479.784 355.223C472.522 355.223 466.635 357.427 466.635 360.146C466.635 362.864 472.522 365.068 479.784 365.068Z" fill="#2F2E41"/>
<path d="M511.34 364.412C518.601 364.412 524.488 362.208 524.488 359.489C524.488 356.771 518.601 354.567 511.34 354.567C504.078 354.567 498.191 356.771 498.191 359.489C498.191 362.208 504.078 364.412 511.34 364.412Z" fill="#2F2E41"/>
<path d="M546.268 268.244C557.516 257.006 563.769 245.038 560.236 241.513C556.702 237.988 544.719 244.24 533.472 255.478C522.224 266.716 515.971 278.684 519.504 282.209C523.038 285.734 535.021 279.482 546.268 268.244Z" fill="#2F2E41"/>
<path d="M443.946 316.374C453.022 303.324 457.053 290.44 452.95 287.595C448.846 284.751 438.163 293.023 429.087 306.073C420.011 319.122 415.98 332.006 420.083 334.851C424.186 337.695 434.87 329.423 443.946 316.374Z" fill="#2F2E41"/>
<path d="M488.117 301.275C497.92 301.275 505.867 293.341 505.867 283.554C505.867 273.767 497.92 265.833 488.117 265.833C478.314 265.833 470.367 273.767 470.367 283.554C470.367 293.341 478.314 301.275 488.117 301.275Z" fill="white"/>
<path d="M494.147 283.441C497.415 283.441 500.064 280.797 500.064 277.534C500.064 274.272 497.415 271.627 494.147 271.627C490.879 271.627 488.23 274.272 488.23 277.534C488.23 280.797 490.879 283.441 494.147 283.441Z" fill="#3F3D56"/>
<path d="M509.398 316.328C511.14 322.59 504.797 328.591 495.232 329.731C485.666 330.871 476.501 326.719 474.759 320.457L474.753 320.434C473.021 314.171 480.418 311.955 489.985 310.821C499.552 309.687 507.667 310.065 509.398 316.328Z" fill="white"/>
<path d="M472.13 260.386C463.565 263.814 454.531 265.932 445.332 266.67C444.691 266.715 444.051 266.556 443.506 266.217C442.96 265.877 442.535 265.374 442.293 264.779L434.407 245.197C434.11 244.456 434.119 243.628 434.432 242.894C434.746 242.16 435.338 241.58 436.079 241.282L485.309 221.519C486.051 221.222 486.88 221.231 487.616 221.544C488.351 221.857 488.932 222.449 489.231 223.189L497.113 242.759C497.355 243.36 497.397 244.022 497.233 244.649C497.069 245.275 496.708 245.833 496.202 246.238C488.916 252.107 480.805 256.873 472.13 260.386Z" fill="#0099FC"/>
<path opacity="0.2" d="M488.671 223.413L489.99 226.686L467.106 246.708C466.677 247.079 466.132 247.289 465.564 247.301L436.176 247.977L434.966 244.972C434.729 244.38 434.737 243.718 434.988 243.131C435.239 242.544 435.712 242.08 436.304 241.84L485.534 222.077C486.128 221.841 486.791 221.849 487.379 222.099C487.966 222.35 488.431 222.822 488.671 223.413Z" fill="black"/>
<path d="M464.836 243.222C464.501 243.357 464.143 243.431 463.782 243.439L419.867 244.453C419.246 244.467 418.636 244.289 418.12 243.944C417.604 243.599 417.207 243.104 416.984 242.525C416.76 241.946 416.722 241.313 416.873 240.711C417.024 240.11 417.357 239.57 417.827 239.165L448.788 212.492C449.289 212.063 449.916 211.808 450.575 211.766L496.011 209.016C496.639 208.978 497.263 209.137 497.796 209.47C498.328 209.804 498.743 210.295 498.982 210.876C499.221 211.457 499.273 212.097 499.129 212.709C498.985 213.32 498.654 213.871 498.181 214.284L465.698 242.694C465.443 242.917 465.151 243.096 464.836 243.222Z" fill="#0099FC"/>
<path d="M429.724 256.16L428.605 256.609L422.082 240.413L456.207 226.713L456.657 227.83L423.65 241.081L429.724 256.16Z" fill="#3F3D56"/>
<path d="M429.614 259.91C430.946 259.91 432.026 258.832 432.026 257.502C432.026 256.172 430.946 255.094 429.614 255.094C428.282 255.094 427.203 256.172 427.203 257.502C427.203 258.832 428.282 259.91 429.614 259.91Z" fill="#3F3D56"/>
<path d="M688.022 168.395C680.193 163.518 673.146 157.489 667.119 150.513C666.704 150.022 666.454 149.413 666.407 148.773C666.359 148.133 666.515 147.494 666.853 146.947L678.027 129.031C678.45 128.354 679.125 127.872 679.903 127.691C680.682 127.511 681.501 127.646 682.18 128.067L727.223 156.065C727.901 156.488 728.383 157.162 728.564 157.939C728.745 158.716 728.61 159.533 728.189 160.211L717.022 178.118C716.679 178.667 716.168 179.093 715.565 179.33C714.962 179.568 714.298 179.606 713.671 179.438C704.626 177.032 695.983 173.311 688.022 168.395Z" fill="#0099FC"/>
<path opacity="0.2" d="M727.677 159.893L725.809 162.888L696.112 156.271C695.559 156.144 695.067 155.829 694.723 155.378L676.824 132.098L678.539 129.349C678.878 128.808 679.418 128.424 680.04 128.279C680.663 128.135 681.317 128.242 681.861 128.578L726.904 156.576C727.446 156.915 727.831 157.454 727.976 158.076C728.12 158.697 728.013 159.351 727.677 159.893Z" fill="black"/>
<path d="M697.59 152.383C697.283 152.193 697.013 151.948 696.792 151.662L670.044 116.875C669.665 116.384 669.449 115.787 669.423 115.168C669.397 114.548 669.564 113.936 669.9 113.414C670.236 112.893 670.725 112.487 671.3 112.254C671.876 112.021 672.509 111.97 673.114 112.11L712.957 121.309C713.6 121.459 714.176 121.814 714.599 122.32L743.65 157.307C744.051 157.79 744.291 158.387 744.336 159.013C744.38 159.639 744.228 160.264 743.9 160.799C743.572 161.334 743.084 161.754 742.505 161.999C741.926 162.244 741.285 162.302 740.671 162.165L698.526 152.766C698.194 152.692 697.878 152.563 697.59 152.383Z" fill="#0099FC"/>
<path d="M666.399 131.731L665.375 131.094L674.617 116.275L705.841 135.684L705.203 136.705L675.003 117.933L666.399 131.731Z" fill="#3F3D56"/>
<path d="M665.25 134.842C666.582 134.842 667.662 133.764 667.662 132.435C667.662 131.105 666.582 130.027 665.25 130.027C663.918 130.027 662.838 131.105 662.838 132.435C662.838 133.764 663.918 134.842 665.25 134.842Z" fill="#3F3D56"/>
<path d="M813.667 283.759C842.35 283.759 865.602 260.545 865.602 231.908C865.602 203.272 842.35 180.058 813.667 180.058C784.983 180.058 761.731 203.272 761.731 231.908C761.731 260.545 784.983 283.759 813.667 283.759Z" fill="#2F2E41"/>
<path d="M849.671 258.794L836.208 267.008L850.95 291.089L864.413 282.875L849.671 258.794Z" fill="#2F2E41"/>
<path d="M822.746 275.222L809.283 283.437L824.024 307.518L837.487 299.304L822.746 275.222Z" fill="#2F2E41"/>
<path d="M855.936 294.201C862.132 290.42 866.004 285.475 864.584 283.155C863.164 280.835 856.99 282.02 850.794 285.8C844.598 289.581 840.726 294.526 842.146 296.846C843.566 299.165 849.74 297.981 855.936 294.201Z" fill="#2F2E41"/>
<path d="M828.668 310.069C834.864 306.289 838.736 301.343 837.316 299.024C835.896 296.704 829.722 297.888 823.526 301.669C817.329 305.449 813.458 310.395 814.878 312.714C816.298 315.034 822.472 313.85 828.668 310.069Z" fill="#2F2E41"/>
<path d="M784.464 223.216C787.998 219.691 781.745 207.723 770.497 196.485C759.25 185.247 747.267 178.995 743.733 182.52C740.2 186.045 746.453 198.013 757.701 209.251C768.948 220.489 780.931 226.741 784.464 223.216Z" fill="#2F2E41"/>
<path d="M883.886 275.857C887.989 273.013 883.958 260.129 874.882 247.079C865.806 234.03 855.123 225.757 851.019 228.602C846.916 231.446 850.947 244.331 860.023 257.38C869.099 270.429 879.783 278.702 883.886 275.857Z" fill="#2F2E41"/>
<path d="M797.763 235.058C807.566 235.058 815.513 227.124 815.513 217.337C815.513 207.55 807.566 199.616 797.763 199.616C787.96 199.616 780.013 207.55 780.013 217.337C780.013 227.124 787.96 235.058 797.763 235.058Z" fill="white"/>
<path d="M791.733 217.224C795.001 217.224 797.65 214.58 797.65 211.317C797.65 208.055 795.001 205.41 791.733 205.41C788.466 205.41 785.817 208.055 785.817 211.317C785.817 214.58 788.466 217.224 791.733 217.224Z" fill="#3F3D56"/>
<path d="M774.906 246.897C771.54 252.403 776.024 259.851 784.922 263.534C793.82 267.216 803.762 265.738 807.128 260.232L807.14 260.213C810.497 254.704 803.976 250.582 795.075 246.905C786.174 243.228 778.263 241.388 774.906 246.897Z" fill="white"/>
<path d="M796.24 166.803C800.878 148.158 821.348 137.185 841.962 142.296C862.576 147.406 875.528 166.664 870.891 185.31C866.253 203.955 850.868 204.015 830.253 198.905C809.639 193.795 791.603 185.449 796.24 166.803Z" fill="#E6E6E6"/>
<path d="M976.794 366H1.20592C0.886089 366 0.579358 365.873 0.353204 365.647C0.127051 365.422 0 365.115 0 364.796C0 364.477 0.127051 364.17 0.353204 363.945C0.579358 363.719 0.886089 363.592 1.20592 363.592H976.794C977.114 363.592 977.421 363.719 977.647 363.945C977.873 364.17 978 364.477 978 364.796C978 365.115 977.873 365.422 977.647 365.647C977.421 365.873 977.114 366 976.794 366Z" fill="#CBCBCB"/>
</g>
<defs>
<clipPath id="clip0_17_71">
<rect width="978" height="366" fill="white"/>
</clipPath>
</defs>
</svg>
