<svg width="253" height="150" viewBox="0 0 253 150" fill="none" xmlns="http://www.w3.org/2000/svg">
<path d="M128.732 110.168C145.257 110.168 158.653 96.794 158.653 80.2957C158.653 63.7975 145.257 50.4231 128.732 50.4231C112.207 50.4231 98.8103 63.7975 98.8103 80.2957C98.8103 96.794 112.207 110.168 128.732 110.168Z" fill="#2F2E41"/>
<path d="M124.187 103.74H115.097V120H124.187V103.74Z" fill="#2F2E41"/>
<path d="M142.367 103.74H133.277V120H142.367V103.74Z" fill="#2F2E41"/>
<path d="M151.539 90.3637C153.315 99.3502 157.04 106.18 159.86 105.618C162.68 105.056 163.527 97.3153 161.752 88.3288C159.977 79.3423 156.252 72.5128 153.431 73.0747C150.611 73.6366 149.764 81.3772 151.539 90.3637Z" fill="#2F2E41"/>
<path d="M104.714 73.5132C102.03 72.4812 97.2002 78.5801 93.9269 87.1355C90.6536 95.6909 90.1759 103.463 92.86 104.495C95.5441 105.527 100.374 99.428 103.647 90.8726C106.92 82.3173 107.398 74.5451 104.714 73.5132Z" fill="#2F2E41"/>
<path d="M127.473 86.2721C133.121 86.2721 137.699 81.701 137.699 76.0624C137.699 70.4238 133.121 65.8528 127.473 65.8528C121.825 65.8528 117.247 70.4238 117.247 76.0624C117.247 81.701 121.825 86.2721 127.473 86.2721Z" fill="white"/>
<path d="M127.705 79.4399C129.587 79.4399 131.114 77.9162 131.114 76.0367C131.114 74.1571 129.587 72.6334 127.705 72.6334C125.822 72.6334 124.296 74.1571 124.296 76.0367C124.296 77.9162 125.822 79.4399 127.705 79.4399Z" fill="#3F3D56"/>
<path d="M127.961 60.7019C122.645 60.6964 117.36 59.8903 112.284 58.3107C111.931 58.1971 111.624 57.9751 111.405 57.6765C111.187 57.3778 111.068 57.0177 111.067 56.6478V44.4883C111.067 44.0286 111.25 43.5878 111.576 43.2628C111.902 42.9377 112.343 42.7548 112.804 42.7543H143.373C143.834 42.7548 144.275 42.9377 144.601 43.2628C144.926 43.5878 145.11 44.0286 145.11 44.4883V56.6407C145.11 57.0138 144.99 57.377 144.768 57.6767C144.545 57.9764 144.232 58.1967 143.874 58.305C138.716 59.8783 133.355 60.6859 127.961 60.7019Z" fill="#0099FC"/>
<path opacity="0.2" d="M144.763 44.4883V46.5206L128.22 52.3124C127.911 52.4189 127.574 52.414 127.269 52.2986L111.414 46.3542V44.4883C111.415 44.1207 111.562 43.7685 111.822 43.5086C112.083 43.2486 112.435 43.1021 112.804 43.1011H143.373C143.741 43.1021 144.094 43.2486 144.355 43.5086C144.615 43.7685 144.762 44.1207 144.763 44.4883Z" fill="black"/>
<path d="M127.758 49.9622C127.549 49.9623 127.342 49.9251 127.147 49.8521L103.455 40.9704C103.12 40.8448 102.832 40.619 102.63 40.3238C102.429 40.0287 102.324 39.6786 102.329 39.3213C102.334 38.9641 102.45 38.6173 102.66 38.3282C102.87 38.0391 103.165 37.8219 103.503 37.7062L125.795 30.0926C126.155 29.9708 126.545 29.9691 126.906 30.0878L151.786 38.3677C152.13 38.482 152.429 38.7008 152.642 38.9934C152.855 39.286 152.971 39.6377 152.973 39.9994C152.976 40.3611 152.866 40.7145 152.657 41.0104C152.449 41.3062 152.153 41.5296 151.811 41.6492L128.332 49.865C128.147 49.9295 127.953 49.9623 127.758 49.9622Z" fill="#0099FC"/>
<path d="M106.204 49.3437H105.509V39.2861H126.699V39.9798H106.204V49.3437Z" fill="#3F3D56"/>
<path d="M105.856 51.4247C106.623 51.4247 107.246 50.8036 107.246 50.0374C107.246 49.2712 106.623 48.6501 105.856 48.6501C105.089 48.6501 104.467 49.2712 104.467 50.0374C104.467 50.8036 105.089 51.4247 105.856 51.4247Z" fill="#3F3D56"/>
<path d="M137.955 98.8472C137.955 99.4836 133.281 97.4069 127.872 97.4069C122.463 97.4069 118.942 100.06 118.942 99.4234C118.942 98.787 122.463 95.1024 127.872 95.1024C133.281 95.1024 137.955 98.2109 137.955 98.8472Z" fill="white"/>
<path d="M46.72 119V101.72H5.504V85.72C6.528 83.8427 7.85067 81.5813 9.472 78.936C11.1787 76.2907 13.184 73.2187 15.488 69.72L39.04 34.52H69.504V84.44H81.536V101.72H69.504V119H46.72ZM25.472 84.44H47.104V60.888C47.104 59.4373 47.104 57.9013 47.104 56.28C47.1893 54.5733 47.2747 52.824 47.36 51.032H47.104C46.2507 52.6533 45.3547 54.3173 44.416 56.024C43.4773 57.6453 42.5387 59.1387 41.6 60.504L29.056 79.192C28.544 80.0453 27.9893 80.8987 27.392 81.752C26.7947 82.6053 26.1547 83.5013 25.472 84.44Z" fill="#2F2E41"/>
<path d="M214.72 119V101.72H173.504V85.72C174.528 83.8427 175.851 81.5813 177.472 78.936C179.179 76.2907 181.184 73.2187 183.488 69.72L207.04 34.52H237.504V84.44H249.536V101.72H237.504V119H214.72ZM193.472 84.44H215.104V60.888C215.104 59.4373 215.104 57.9013 215.104 56.28C215.189 54.5733 215.275 52.824 215.36 51.032H215.104C214.251 52.6533 213.355 54.3173 212.416 56.024C211.477 57.6453 210.539 59.1387 209.6 60.504L197.056 79.192C196.544 80.0453 195.989 80.8987 195.392 81.752C194.795 82.6053 194.155 83.5013 193.472 84.44Z" fill="#2F2E41"/>
</svg>
