<svg width="169" height="221" viewBox="0 0 169 221" fill="none" xmlns="http://www.w3.org/2000/svg">
<path d="M111.37 192.534C116.473 199.73 122.704 206.156 129.852 211.596C130.354 211.97 130.97 212.185 131.612 212.21C132.253 212.235 132.887 212.069 133.423 211.734L151.006 200.693C151.67 200.274 152.132 199.626 152.29 198.89C152.448 198.154 152.289 197.39 151.849 196.765L122.551 155.362C122.109 154.739 121.422 154.307 120.64 154.161C119.857 154.016 119.045 154.168 118.379 154.584L100.807 165.62C100.267 165.958 99.8572 166.451 99.6371 167.024C99.417 167.598 99.3987 168.222 99.5849 168.805C102.253 177.22 106.224 185.215 111.37 192.534Z" fill="#0099FC"/>
<path opacity="0.2" d="M118.713 155.055L115.774 156.9L123.253 184.565C123.395 185.08 123.725 185.532 124.185 185.841L147.975 201.917L150.673 200.222C151.204 199.887 151.573 199.368 151.699 198.78C151.825 198.191 151.699 197.58 151.348 197.08L122.05 155.677C121.696 155.179 121.146 154.835 120.52 154.718C119.895 154.601 119.245 154.723 118.713 155.055Z" fill="black"/>
<path d="M127.095 183.057C127.294 183.34 127.546 183.586 127.839 183.784L163.388 207.807C163.891 208.147 164.493 208.332 165.113 208.337C165.733 208.342 166.34 208.167 166.852 207.835C167.363 207.504 167.754 207.032 167.97 206.485C168.187 205.937 168.219 205.341 168.062 204.778L157.707 167.672C157.538 167.074 157.166 166.544 156.649 166.163L120.832 139.985C120.337 139.623 119.734 139.417 119.107 139.394C118.48 139.371 117.86 139.533 117.334 139.858C116.809 140.183 116.403 140.653 116.175 141.204C115.947 141.755 115.908 142.359 116.062 142.93L126.685 182.191C126.768 182.5 126.907 182.793 127.095 183.057Z" fill="#0099FC"/>
<path d="M148.646 211.689L149.312 212.63L163.855 203.497L143.546 174.796L142.544 175.427L162.187 203.186L148.646 211.689Z" fill="#3F3D56"/>
<path d="M145.569 212.864C145.531 211.614 146.577 210.567 147.906 210.525C149.235 210.484 150.344 211.464 150.383 212.714C150.422 213.964 149.376 215.011 148.046 215.052C146.717 215.094 145.608 214.114 145.569 212.864Z" fill="#3F3D56"/>
<path d="M-7.59859 78.1988C-8.43411 51.2803 14.0918 28.7384 42.7144 27.85C71.337 26.9616 95.2176 48.0631 96.0531 74.9816C96.8886 101.9 74.3627 124.442 45.7401 125.33C17.1175 126.219 -6.76308 105.117 -7.59859 78.1988Z" fill="#2F2E41"/>
<path d="M16.3055 43.6349L8.4873 56.5242L-16.0119 43.4369L-8.19372 30.5476L16.3055 43.6349Z" fill="#2F2E41"/>
<path d="M0.66977 69.4134L-7.14844 82.3027L-31.6477 69.2154L-23.8295 56.3261L0.66977 69.4134Z" fill="#2F2E41"/>
<path d="M53.7663 103.726C57.1868 100.3 69.331 105.798 80.8911 116.005C92.4511 126.211 99.0495 137.263 95.629 140.688C92.2084 144.114 80.0642 138.617 68.5042 128.41C56.9441 118.203 50.3457 107.152 53.7663 103.726Z" fill="#2F2E41"/>
<path d="M-1.74645 12.0549C0.97716 8.11589 13.9728 11.4992 27.2802 19.6117C40.5875 27.7243 49.1674 37.494 46.4437 41.433C43.7201 45.3721 30.7245 41.9888 17.4171 33.8763C4.10976 25.7637 -4.47006 15.994 -1.74645 12.0549Z" fill="#2F2E41"/>
<path d="M41.5421 91.613C41.2565 82.413 48.9553 74.7089 58.7377 74.4052C68.5201 74.1016 76.6818 81.3135 76.9673 90.5135C77.2529 99.7134 69.5542 107.418 59.7718 107.721C49.9893 108.025 41.8276 100.813 41.5421 91.613Z" fill="white"/>
<path d="M59.5431 96.7184C59.4479 93.6517 62.0142 91.0836 65.275 90.9824C68.5358 90.8812 71.2564 93.2852 71.3516 96.3518C71.4468 99.4185 68.8805 101.987 65.6197 102.088C62.3589 102.189 59.6383 99.785 59.5431 96.7184Z" fill="#3F3D56"/>
<path d="M30.3742 113.431C24.9693 116.761 17.3938 112.783 13.4541 104.547C9.51437 96.3108 10.7022 86.9348 16.1071 83.6053L16.1263 83.5934C21.5351 80.2719 25.8449 86.2634 29.7793 94.5029C33.7137 102.742 35.783 110.11 30.3742 113.431Z" fill="white"/>
</svg>
