<svg width="134" height="157" viewBox="0 0 134 157" fill="none" xmlns="http://www.w3.org/2000/svg">
<path d="M70.6995 139.151C99.3828 139.151 122.635 115.936 122.635 87.2998C122.635 58.6634 99.3828 35.449 70.6995 35.449C42.0162 35.449 18.7638 58.6634 18.7638 87.2998C18.7638 115.936 42.0162 139.151 70.6995 139.151Z" fill="#2F2E41"/>
<path d="M62.8105 127.993H47.0326V156.216H62.8105V127.993Z" fill="#2F2E41"/>
<path d="M94.3664 127.993H78.5885V156.216H94.3664V127.993Z" fill="#2F2E41"/>
<path d="M110.287 104.775C113.368 120.373 119.834 132.227 124.73 131.252C129.625 130.277 131.095 116.841 128.014 101.243C124.932 85.6448 118.466 73.7907 113.571 74.766C108.676 75.7414 107.205 89.1769 110.287 104.775Z" fill="#2F2E41"/>
<path d="M29.0105 75.5271C24.3517 73.7358 15.969 84.3219 10.2874 99.1717C4.60583 114.022 3.77675 127.512 8.43563 129.303C13.0945 131.094 21.4771 120.508 27.1587 105.658C32.8403 90.8086 33.6694 77.3183 29.0105 75.5271Z" fill="#2F2E41"/>
<path d="M68.5144 97.673C78.3175 97.673 86.2646 89.739 86.2646 79.9519C86.2646 70.1647 78.3175 62.2307 68.5144 62.2307C58.7112 62.2307 50.7642 70.1647 50.7642 79.9519C50.7642 89.739 58.7112 97.673 68.5144 97.673Z" fill="white"/>
<path d="M68.9168 85.8142C72.1845 85.8142 74.8335 83.1695 74.8335 79.9071C74.8335 76.6447 72.1845 74 68.9168 74C65.649 74 63 76.6447 63 79.9071C63 83.1695 65.649 85.8142 68.9168 85.8142Z" fill="#3F3D56"/>
<path d="M69.362 53.2901C60.1341 53.2807 50.9604 51.8815 42.1505 49.1397C41.5385 48.9426 41.0045 48.5572 40.625 48.0388C40.2455 47.5204 40.0398 46.8954 40.0375 46.2533V25.1478C40.0385 24.3498 40.3564 23.5848 40.9216 23.0205C41.4868 22.4563 42.253 22.1389 43.0523 22.1379H96.1127C96.912 22.1389 97.6783 22.4563 98.2435 23.0205C98.8087 23.5848 99.1266 24.3498 99.1275 25.1478V46.241C99.1279 46.8885 98.9195 47.5191 98.5332 48.0393C98.1469 48.5595 97.6032 48.9418 96.9824 49.1297C88.0297 51.8607 78.7233 53.2625 69.362 53.2901Z" fill="#0099FC"/>
<path opacity="0.2" d="M98.5247 25.1479V28.6754L69.8117 38.7284C69.275 38.9133 68.6904 38.9048 68.1594 38.7043L40.6406 28.3865V25.1479C40.6424 24.5098 40.8971 23.8985 41.349 23.4473C41.8009 22.9961 42.4133 22.7418 43.0524 22.74H96.1128C96.7519 22.7418 97.3643 22.9961 97.8162 23.4473C98.2681 23.8985 98.5228 24.5098 98.5247 25.1479Z" fill="black"/>
<path d="M69.0082 34.6489C68.6464 34.6492 68.2875 34.5845 67.9486 34.4579L26.8255 19.0417C26.244 18.8237 25.7442 18.4317 25.3944 17.9194C25.0445 17.407 24.8617 16.7993 24.8709 16.1793C24.8801 15.5593 25.0808 14.9573 25.4457 14.4555C25.8106 13.9537 26.3218 13.5766 26.9094 13.3759L65.6018 0.160667C66.227 -0.0507044 66.9039 -0.0535896 67.5308 0.152437L110.715 14.524C111.311 14.7225 111.831 15.1022 112.2 15.6101C112.57 16.1179 112.771 16.7285 112.776 17.3562C112.781 17.984 112.589 18.5975 112.227 19.111C111.866 19.6245 111.352 20.0122 110.759 20.2198L70.0051 34.4803C69.6847 34.5922 69.3476 34.6492 69.0082 34.6489Z" fill="#0099FC"/>
<path d="M31.5964 33.5754H30.3904V16.1182H67.171V17.3221H31.5964V33.5754Z" fill="#3F3D56"/>
<path d="M30.9932 37.1874C32.3252 37.1874 33.405 36.1093 33.405 34.7795C33.405 33.4496 32.3252 32.3716 30.9932 32.3716C29.6612 32.3716 28.5814 33.4496 28.5814 34.7795C28.5814 36.1093 29.6612 37.1874 30.9932 37.1874Z" fill="#3F3D56"/>
<path d="M86.7075 119.5C86.7075 120.605 78.5964 117 69.2075 117C59.8187 117 53.7075 121.605 53.7075 120.5C53.7075 119.395 59.8187 113 69.2075 113C78.5964 113 86.7075 118.395 86.7075 119.5Z" fill="white"/>
</svg>
